<?xml version="1.0" standalone="no"?>
<!DOCTYPE svg PUBLIC "-//W3C//DTD SVG 20010904//EN"
 "http://www.w3.org/TR/2001/REC-SVG-20010904/DTD/svg10.dtd">
<svg version="1.0" xmlns="http://www.w3.org/2000/svg"
 width="500.000000pt" height="500.000000pt" viewBox="0 0 500.000000 500.000000"
 preserveAspectRatio="xMidYMid meet">
<metadata>
Created by potrace 1.14, written by Peter Selinger 2001-2017
</metadata>
<g transform="translate(0.000000,500.000000) scale(0.100000,-0.100000)"
fill="#000000" stroke="none">
<path d="M2520 4989 c0 -5 -7 -6 -15 -3 -17 7 -195 -33 -210 -47 -5 -5 -15 -9
-22 -9 -26 0 -209 -96 -290 -151 -23 -16 -46 -29 -52 -29 -6 0 -11 -3 -11 -7
0 -5 -21 -21 -45 -38 -25 -16 -45 -33 -45 -37 0 -5 -6 -8 -12 -8 -7 0 -27 -14
-45 -30 -18 -17 -35 -30 -38 -30 -3 0 -16 -9 -28 -21 -12 -11 -35 -30 -51 -42
-16 -12 -40 -32 -53 -44 -13 -13 -26 -23 -29 -23 -3 0 -11 -6 -19 -12 -7 -7
-37 -33 -66 -58 -29 -25 -61 -53 -71 -62 -10 -10 -23 -18 -28 -18 -5 0 -10 -7
-10 -15 0 -8 -6 -15 -14 -15 -8 0 -16 -4 -18 -8 -4 -11 -169 -150 -308 -261
-63 -51 -131 -105 -150 -121 -19 -16 -57 -48 -85 -71 -59 -49 -168 -144 -205
-179 -103 -97 -163 -155 -162 -157 1 -2 -18 -22 -41 -45 -24 -24 -61 -65 -82
-93 -22 -27 -43 -51 -47 -53 -5 -2 -8 -10 -8 -18 0 -8 -4 -14 -10 -14 -5 0
-10 -6 -10 -14 0 -8 -7 -16 -15 -20 -8 -3 -15 -12 -15 -20 0 -8 -6 -21 -13
-28 -12 -12 -21 -27 -74 -131 -11 -23 -19 -45 -16 -49 2 -5 0 -8 -6 -8 -9 0
-27 -56 -23 -72 1 -5 -2 -8 -6 -8 -5 0 -9 -6 -10 -12 -1 -18 -21 -100 -29
-118 -3 -8 -7 -26 -8 -40 -1 -14 -6 -52 -10 -85 -9 -67 -14 -315 -6 -329 5
-10 12 -82 15 -143 0 -18 3 -33 6 -33 5 0 11 -31 13 -72 1 -10 4 -18 7 -18 3
0 6 -8 7 -17 3 -36 9 -69 17 -81 4 -7 9 -25 12 -40 4 -32 9 -51 16 -72 8 -23
33 -104 33 -110 1 -3 6 -15 13 -27 7 -13 10 -23 6 -23 -3 0 -1 -7 6 -15 7 -8
9 -15 5 -15 -4 0 -3 -6 3 -12 6 -7 11 -16 11 -21 0 -4 8 -23 16 -43 8 -20 15
-38 15 -39 0 -2 10 -25 22 -52 12 -26 22 -51 22 -55 1 -3 4 -10 8 -14 5 -4 8
-15 8 -24 0 -10 7 -23 15 -30 9 -7 13 -15 11 -18 -3 -3 3 -17 14 -32 11 -15
17 -30 13 -34 -3 -3 -1 -6 6 -6 7 0 10 -4 7 -9 -3 -5 1 -14 9 -21 8 -7 12 -16
9 -21 -3 -5 0 -9 7 -9 7 0 9 -3 6 -7 -4 -3 -3 -11 2 -17 4 -6 25 -42 45 -79
60 -110 77 -141 97 -169 11 -14 19 -31 19 -37 0 -6 5 -11 10 -11 6 0 10 -7 10
-15 0 -8 5 -15 10 -15 6 0 10 -6 10 -13 0 -7 9 -23 20 -35 11 -12 20 -24 20
-28 0 -6 27 -42 134 -177 53 -66 139 -159 195 -211 82 -76 100 -93 132 -119
89 -72 325 -211 382 -223 4 -1 9 -3 12 -4 3 -1 8 -3 13 -4 4 -1 32 -9 62 -19
31 -9 71 -18 90 -21 19 -2 47 -7 62 -11 33 -8 279 -14 292 -7 5 3 32 6 60 8
28 1 65 5 81 8 17 3 48 8 70 12 22 3 45 7 50 8 6 1 15 4 20 7 6 4 20 5 33 4
12 -1 22 1 22 5 0 4 6 7 13 8 13 0 50 8 75 16 9 3 28 7 42 10 22 4 157 47 200
64 8 3 18 4 23 4 4 -1 7 3 7 10 0 6 3 9 6 5 3 -3 25 1 47 10 23 8 49 16 57 18
8 2 16 4 18 5 1 2 5 3 10 5 4 1 21 7 37 14 17 7 37 14 46 16 8 2 44 15 80 30
35 15 75 32 89 38 14 6 31 9 38 8 6 -1 12 4 12 10 0 7 3 10 6 6 3 -3 43 10 87
30 45 19 90 35 100 36 9 1 17 4 17 8 0 4 13 10 30 14 16 4 32 11 35 16 4 5 13
9 21 9 13 0 35 9 129 50 30 13 69 24 78 22 4 -1 7 3 7 8 0 6 5 10 10 10 6 0
27 7 48 16 20 10 42 18 47 19 11 3 61 25 150 66 28 12 55 23 61 24 6 0 18 6
26 13 8 6 18 9 21 5 4 -3 7 -1 7 5 0 7 6 12 13 12 13 0 143 64 162 80 7 6 15
7 18 3 4 -3 7 0 7 7 0 7 3 11 6 7 4 -3 26 7 50 23 23 17 46 30 50 30 4 0 22
11 39 25 18 13 35 21 39 18 3 -3 8 2 12 11 3 9 11 16 18 16 12 0 42 20 75 50
9 8 35 28 56 45 22 16 45 36 52 45 7 8 13 12 13 8 0 -14 130 127 130 142 0 6
5 8 10 5 6 -3 10 0 10 9 0 8 3 16 8 18 11 5 52 66 52 78 0 5 4 10 9 10 5 0 12
13 16 30 4 16 11 30 16 30 5 0 9 4 9 9 0 5 8 26 17 47 9 22 17 41 18 44 1 3 5
13 9 22 4 9 9 22 10 30 2 7 6 20 9 28 18 47 28 91 22 100 -3 5 -2 10 2 10 5 0
10 15 12 33 4 40 9 72 11 72 7 0 13 115 12 235 0 174 -5 270 -13 270 -3 0 -6
12 -6 28 0 24 -5 53 -18 117 -2 11 -6 31 -8 45 -2 14 -7 35 -11 47 -4 12 -8
30 -10 40 -2 10 -10 38 -17 63 -7 25 -13 50 -15 55 -5 27 -58 172 -89 250 -4
11 -9 27 -11 35 -2 8 -8 16 -13 18 -6 2 -11 11 -11 19 0 20 -105 228 -166 329
-69 114 -256 380 -284 404 -3 3 -24 27 -45 55 -22 27 -49 59 -60 71 -11 12
-58 63 -105 114 -190 206 -519 516 -668 630 -18 14 -43 33 -55 44 -61 51 -236
162 -337 213 -30 16 -58 32 -62 38 -4 5 -10 6 -14 3 -4 -4 -16 -1 -28 7 -11 8
-28 15 -38 15 -10 0 -18 5 -18 12 0 6 -3 9 -6 5 -3 -3 -27 1 -52 8 -105 31
-312 53 -312 34z"/>
</g>
</svg>
